Caberetshow: Micha Wertheim - Voor De Grap
TVRIP van 27-11-2010


General
Format                           : AVI
Format/Info                      : Audio Video Interleave
File size                        : 508 MiB
Duration                         : 1h 26mn
Overall bit rate                 : 824 Kbps
Writing application              : Lavf52.73.0

Video
Format                           : MPEG-4 Visual
Codec ID                         : DIV3
Codec ID/Hint                    : DivX 3 Low
Duration                         : 1h 26mn
Bit rate                         : 691 Kbps
Width                            : 720 pixels
Height                           : 576 pixels
Display aspect ratio             : 5:4
Frame rate                       : 25.000 fps
Standard                         : PAL
Color space                      : YUV
Chroma subsampling               : 4:2:0
Bit depth                        : 8 bits
Bits/(Pixel*Frame)               : 0.067
Stream size                      : 426 MiB (84%)

Audio
Format                           : MPEG Audio
Format version                   : Version 1
Format profile                   : Layer 3
Mode                             : Joint stereo
Mode extension                   : MS Stereo
Codec ID                         : 55
Codec ID/Hint                    : MP3
Duration                         : 1h 26mn
Bit rate mode                    : Variable
Bit rate                         : 105 Kbps
Channel(s)                       : 2 channels
Sampling rate                    : 44.1 KHz
Stream size                      : 74.5 MiB (15%)
Alignment                        : Aligned on interleaves
Interleave, duration             : 26 ms (0.65 video frame)
Interleave, preload duration     : 7 ms
